<svg width="24" height="29" viewBox="0 0 24 29" fill="none" xmlns="http://www.w3.org/2000/svg">
<path d="M11.6667 14.3333L5.96948 9.58568C5.12302 8.88029 4.69978 8.5276 4.39552 8.09525C4.12593 7.71217 3.92572 7.28472 3.80402 6.83238C3.66667 6.32185 3.66667 5.77092 3.66667 4.66907V1M11.6667 14.3333L17.3638 9.58568C18.2103 8.88029 18.6335 8.5276 18.9378 8.09525C19.2074 7.71217 19.4076 7.28472 19.5293 6.83238C19.6667 6.32185 19.6667 5.77092 19.6667 4.66907V1M11.6667 14.3333L5.96949 19.081C5.12302 19.7864 4.69978 20.1391 4.39552 20.5714C4.12593 20.9545 3.92572 21.3819 3.80402 21.8343C3.66667 22.3448 3.66667 22.8957 3.66667 23.9976V27.6667M11.6667 14.3333L17.3639 19.081C18.2103 19.7864 18.6335 20.1391 18.9378 20.5714C19.2074 20.9545 19.4076 21.3819 19.5293 21.8343C19.6667 22.3448 19.6667 22.8957 19.6667 23.9976V27.6667M1 1H22.3333M1 27.6667H22.3333" stroke="#79B5EC" stroke-width="2" stroke-linecap="round" stroke-linejoin="round"/>
</svg>
